<svg width="640" height="360" viewBox="0 0 640 360" xmlns="http://www.w3.org/2000/svg">
  <defs>
    <linearGradient id="bg" x1="0" y1="0" x2="1" y2="1">
      <stop offset="0%" stop-color="#0b1220"/>
      <stop offset="100%" stop-color="#0f172a"/>
    </linearGradient>
    <linearGradient id="accent" x1="0" y1="0" x2="1" y2="1">
      <stop offset="0%" stop-color="#22d3ee"/>
      <stop offset="100%" stop-color="#3b82f6"/>
    </linearGradient>
  </defs>
  <rect width="640" height="360" fill="url(#bg)"/>
  <!-- Hanger -->
  <g transform="translate(220,60)" stroke="url(#accent)" stroke-width="4" fill="none">
    <path d="M100,0 c-10,0 -20,10 -20,20 c0,10 10,15 20,20 c20,10 30,25 30,40" />
    <path d="M0,100 h200"/>
  </g>
  <!-- Garment outline -->
  <path d="M240,110 q80,-20 160,0 l-20,140 h-120 z" fill="#22d3ee" opacity="0.15"/>
  <rect x="120" y="120" width="120" height="160" rx="12" fill="#fff" opacity="0.05"/>
  <rect x="400" y="120" width="120" height="160" rx="12" fill="#fff" opacity="0.05"/>
  <!-- Pose keypoints -->
  <g fill="#f59e0b" opacity="0.9">
    <circle cx="320" cy="160" r="4"/>
    <circle cx="300" cy="200" r="4"/>
    <circle cx="340" cy="200" r="4"/>
  </g>
  <text x="40" y="40" fill="#e5e7eb" font-family="Inter, Arial" font-size="22" font-weight="700">Virtual Wardrobe</text>
  <text x="40" y="65" fill="#9ca3af" font-family="Inter, Arial" font-size="14">Pose Estimation • Foreground Extraction</text>
</svg>
